<mxfile host="Electron" agent="Mozilla/5.0 (Windows NT 10.0; Win64; x64) AppleWebKit/537.36 (KHTML, like Gecko) draw.io/26.2.2 Chrome/134.0.6998.178 Electron/35.1.2 Safari/537.36" version="26.2.2">
  <diagram name="Page-1" id="yE-2s2r_8WqUVqne9O0K">
    <mxGraphModel dx="1680" dy="1039" grid="1" gridSize="10" guides="1" tooltips="1" connect="1" arrows="1" fold="1" page="1" pageScale="1" pageWidth="850" pageHeight="1100" math="0" shadow="0">
      <root>
        <mxCell id="0" />
        <mxCell id="1" parent="0" />
        <mxCell id="AXNX3rKrvzRq8Kbk7m-a-1" value="MapView" style="shape=umlLifeline;perimeter=lifelinePerimeter;whiteSpace=wrap;html=1;container=1;dropTarget=0;collapsible=0;recursiveResize=0;outlineConnect=0;portConstraint=eastwest;newEdgeStyle={&quot;curved&quot;:0,&quot;rounded&quot;:0};" vertex="1" parent="1">
          <mxGeometry x="190" y="40" width="100" height="930" as="geometry" />
        </mxCell>
        <mxCell id="AXNX3rKrvzRq8Kbk7m-a-2" value="" style="html=1;points=[[0,0,0,0,5],[0,1,0,0,-5],[1,0,0,0,5],[1,1,0,0,-5]];perimeter=orthogonalPerimeter;outlineConnect=0;targetShapes=umlLifeline;portConstraint=eastwest;newEdgeStyle={&quot;curved&quot;:0,&quot;rounded&quot;:0};" vertex="1" parent="AXNX3rKrvzRq8Kbk7m-a-1">
          <mxGeometry x="45" y="110" width="10" height="820" as="geometry" />
        </mxCell>
        <mxCell id="AXNX3rKrvzRq8Kbk7m-a-3" value="MapController" style="shape=umlLifeline;perimeter=lifelinePerimeter;whiteSpace=wrap;html=1;container=1;dropTarget=0;collapsible=0;recursiveResize=0;outlineConnect=0;portConstraint=eastwest;newEdgeStyle={&quot;curved&quot;:0,&quot;rounded&quot;:0};" vertex="1" parent="1">
          <mxGeometry x="360" y="40" width="100" height="930" as="geometry" />
        </mxCell>
        <mxCell id="AXNX3rKrvzRq8Kbk7m-a-4" value="" style="html=1;points=[[0,0,0,0,5],[0,1,0,0,-5],[1,0,0,0,5],[1,1,0,0,-5]];perimeter=orthogonalPerimeter;outlineConnect=0;targetShapes=umlLifeline;portConstraint=eastwest;newEdgeStyle={&quot;curved&quot;:0,&quot;rounded&quot;:0};" vertex="1" parent="AXNX3rKrvzRq8Kbk7m-a-3">
          <mxGeometry x="45" y="110" width="10" height="820" as="geometry" />
        </mxCell>
        <mxCell id="AXNX3rKrvzRq8Kbk7m-a-5" value="Database" style="shape=umlLifeline;perimeter=lifelinePerimeter;whiteSpace=wrap;html=1;container=1;dropTarget=0;collapsible=0;recursiveResize=0;outlineConnect=0;portConstraint=eastwest;newEdgeStyle={&quot;curved&quot;:0,&quot;rounded&quot;:0};" vertex="1" parent="1">
          <mxGeometry x="680" y="40" width="100" height="920" as="geometry" />
        </mxCell>
        <mxCell id="AXNX3rKrvzRq8Kbk7m-a-6" value="" style="html=1;points=[[0,0,0,0,5],[0,1,0,0,-5],[1,0,0,0,5],[1,1,0,0,-5]];perimeter=orthogonalPerimeter;outlineConnect=0;targetShapes=umlLifeline;portConstraint=eastwest;newEdgeStyle={&quot;curved&quot;:0,&quot;rounded&quot;:0};" vertex="1" parent="AXNX3rKrvzRq8Kbk7m-a-5">
          <mxGeometry x="45" y="110" width="10" height="810" as="geometry" />
        </mxCell>
        <mxCell id="AXNX3rKrvzRq8Kbk7m-a-7" value="DBManager" style="shape=umlLifeline;perimeter=lifelinePerimeter;whiteSpace=wrap;html=1;container=1;dropTarget=0;collapsible=0;recursiveResize=0;outlineConnect=0;portConstraint=eastwest;newEdgeStyle={&quot;curved&quot;:0,&quot;rounded&quot;:0};" vertex="1" parent="1">
          <mxGeometry x="520" y="40" width="100" height="920" as="geometry" />
        </mxCell>
        <mxCell id="AXNX3rKrvzRq8Kbk7m-a-8" value="" style="html=1;points=[[0,0,0,0,5],[0,1,0,0,-5],[1,0,0,0,5],[1,1,0,0,-5]];perimeter=orthogonalPerimeter;outlineConnect=0;targetShapes=umlLifeline;portConstraint=eastwest;newEdgeStyle={&quot;curved&quot;:0,&quot;rounded&quot;:0};" vertex="1" parent="AXNX3rKrvzRq8Kbk7m-a-7">
          <mxGeometry x="45" y="110" width="10" height="810" as="geometry" />
        </mxCell>
        <mxCell id="AXNX3rKrvzRq8Kbk7m-a-9" value="" style="shape=umlLifeline;perimeter=lifelinePerimeter;whiteSpace=wrap;html=1;container=1;dropTarget=0;collapsible=0;recursiveResize=0;outlineConnect=0;portConstraint=eastwest;newEdgeStyle={&quot;curved&quot;:0,&quot;rounded&quot;:0};participant=umlActor;" vertex="1" parent="1">
          <mxGeometry x="70" y="40" width="20" height="940" as="geometry" />
        </mxCell>
        <mxCell id="AXNX3rKrvzRq8Kbk7m-a-10" value="" style="html=1;points=[[0,0,0,0,5],[0,1,0,0,-5],[1,0,0,0,5],[1,1,0,0,-5]];perimeter=orthogonalPerimeter;outlineConnect=0;targetShapes=umlLifeline;portConstraint=eastwest;newEdgeStyle={&quot;curved&quot;:0,&quot;rounded&quot;:0};" vertex="1" parent="AXNX3rKrvzRq8Kbk7m-a-9">
          <mxGeometry x="5" y="110" width="10" height="830" as="geometry" />
        </mxCell>
        <mxCell id="AXNX3rKrvzRq8Kbk7m-a-11" value="" style="html=1;verticalAlign=bottom;labelBackgroundColor=none;endArrow=block;endFill=1;rounded=0;" edge="1" parent="1">
          <mxGeometry width="160" relative="1" as="geometry">
            <mxPoint x="79.5" y="170" as="sourcePoint" />
            <mxPoint x="239.5" y="170" as="targetPoint" />
          </mxGeometry>
        </mxCell>
        <mxCell id="AXNX3rKrvzRq8Kbk7m-a-12" value="show_risk_map()" style="text;html=1;align=center;verticalAlign=middle;resizable=0;points=[];autosize=1;strokeColor=none;fillColor=none;" vertex="1" parent="1">
          <mxGeometry x="100" y="138" width="110" height="30" as="geometry" />
        </mxCell>
        <mxCell id="AXNX3rKrvzRq8Kbk7m-a-13" value="" style="html=1;verticalAlign=bottom;labelBackgroundColor=none;endArrow=block;endFill=1;rounded=0;" edge="1" parent="1">
          <mxGeometry width="160" relative="1" as="geometry">
            <mxPoint x="239.5" y="220" as="sourcePoint" />
            <mxPoint x="409.5" y="220" as="targetPoint" />
          </mxGeometry>
        </mxCell>
        <mxCell id="AXNX3rKrvzRq8Kbk7m-a-14" value="update_map()" style="text;html=1;align=center;verticalAlign=middle;resizable=0;points=[];autosize=1;strokeColor=none;fillColor=none;" vertex="1" parent="1">
          <mxGeometry x="270" y="198" width="100" height="30" as="geometry" />
        </mxCell>
        <mxCell id="AXNX3rKrvzRq8Kbk7m-a-15" value="" style="html=1;verticalAlign=bottom;labelBackgroundColor=none;endArrow=block;endFill=1;rounded=0;" edge="1" parent="1">
          <mxGeometry width="160" relative="1" as="geometry">
            <mxPoint x="409.5" y="270" as="sourcePoint" />
            <mxPoint x="565" y="270" as="targetPoint" />
          </mxGeometry>
        </mxCell>
        <mxCell id="AXNX3rKrvzRq8Kbk7m-a-16" value="get_confirmed_reports()" style="text;html=1;align=center;verticalAlign=middle;resizable=0;points=[];autosize=1;strokeColor=none;fillColor=none;" vertex="1" parent="1">
          <mxGeometry x="405" y="248" width="150" height="30" as="geometry" />
        </mxCell>
        <mxCell id="AXNX3rKrvzRq8Kbk7m-a-17" value="" style="html=1;verticalAlign=bottom;labelBackgroundColor=none;endArrow=block;endFill=1;rounded=0;" edge="1" parent="1">
          <mxGeometry width="160" relative="1" as="geometry">
            <mxPoint x="569.5" y="310" as="sourcePoint" />
            <mxPoint x="729.5" y="310" as="targetPoint" />
          </mxGeometry>
        </mxCell>
        <mxCell id="AXNX3rKrvzRq8Kbk7m-a-18" value="SELECT* FROM reports WHERE status= &#39;VALID&#39;" style="text;html=1;align=center;verticalAlign=middle;resizable=0;points=[];autosize=1;strokeColor=none;fillColor=none;" vertex="1" parent="1">
          <mxGeometry x="485" y="288" width="290" height="30" as="geometry" />
        </mxCell>
        <mxCell id="AXNX3rKrvzRq8Kbk7m-a-19" value="" style="html=1;verticalAlign=bottom;labelBackgroundColor=none;endArrow=block;endFill=1;dashed=1;rounded=0;" edge="1" parent="1">
          <mxGeometry width="160" relative="1" as="geometry">
            <mxPoint x="720.33" y="398" as="sourcePoint" />
            <mxPoint x="399.9966666666665" y="398" as="targetPoint" />
          </mxGeometry>
        </mxCell>
        <mxCell id="AXNX3rKrvzRq8Kbk7m-a-20" value="List&amp;lt;Report&amp;gt;" style="text;html=1;align=center;verticalAlign=middle;resizable=0;points=[];autosize=1;strokeColor=none;fillColor=none;" vertex="1" parent="1">
          <mxGeometry x="480" y="368" width="90" height="30" as="geometry" />
        </mxCell>
        <mxCell id="AXNX3rKrvzRq8Kbk7m-a-21" value="" style="html=1;verticalAlign=bottom;labelBackgroundColor=none;endArrow=block;endFill=1;dashed=1;rounded=0;" edge="1" parent="1">
          <mxGeometry width="160" relative="1" as="geometry">
            <mxPoint x="405" y="430" as="sourcePoint" />
            <mxPoint x="235" y="430" as="targetPoint" />
          </mxGeometry>
        </mxCell>
        <mxCell id="AXNX3rKrvzRq8Kbk7m-a-22" value="handle_map_generation(reports)" style="text;html=1;align=center;verticalAlign=middle;resizable=0;points=[];autosize=1;strokeColor=none;fillColor=none;" vertex="1" parent="1">
          <mxGeometry x="220" y="408" width="200" height="30" as="geometry" />
        </mxCell>
        <mxCell id="AXNX3rKrvzRq8Kbk7m-a-23" value="alt" style="shape=umlFrame;whiteSpace=wrap;html=1;pointerEvents=0;" vertex="1" parent="1">
          <mxGeometry x="210" y="450" width="300" height="140" as="geometry" />
        </mxCell>
        <mxCell id="AXNX3rKrvzRq8Kbk7m-a-24" value="Σφάλμα στη βάση δεδομένων" style="text;html=1;align=center;verticalAlign=middle;resizable=0;points=[];autosize=1;strokeColor=none;fillColor=none;" vertex="1" parent="1">
          <mxGeometry x="260" y="448" width="180" height="30" as="geometry" />
        </mxCell>
        <mxCell id="AXNX3rKrvzRq8Kbk7m-a-25" value="" style="html=1;verticalAlign=bottom;labelBackgroundColor=none;endArrow=block;endFill=1;dashed=1;rounded=0;" edge="1" parent="1">
          <mxGeometry width="160" relative="1" as="geometry">
            <mxPoint x="409.5" y="530" as="sourcePoint" />
            <mxPoint x="239.5" y="530" as="targetPoint" />
          </mxGeometry>
        </mxCell>
        <mxCell id="AXNX3rKrvzRq8Kbk7m-a-26" value="show_error(\&quot;Αποτυχία φόρτωσης δεδομένων\&quot;)" style="text;html=1;align=center;verticalAlign=middle;resizable=0;points=[];autosize=1;strokeColor=none;fillColor=none;" vertex="1" parent="1">
          <mxGeometry x="200" y="498" width="280" height="30" as="geometry" />
        </mxCell>
        <mxCell id="AXNX3rKrvzRq8Kbk7m-a-27" value="end" style="text;html=1;align=center;verticalAlign=middle;resizable=0;points=[];autosize=1;strokeColor=none;fillColor=none;" vertex="1" parent="1">
          <mxGeometry x="200" y="558" width="40" height="30" as="geometry" />
        </mxCell>
        <mxCell id="AXNX3rKrvzRq8Kbk7m-a-28" value="alt" style="shape=umlFrame;whiteSpace=wrap;html=1;pointerEvents=0;" vertex="1" parent="1">
          <mxGeometry x="210" y="620" width="300" height="200" as="geometry" />
        </mxCell>
        <mxCell id="AXNX3rKrvzRq8Kbk7m-a-29" value="Empty List&amp;lt;Report&amp;gt;" style="text;html=1;align=center;verticalAlign=middle;resizable=0;points=[];autosize=1;strokeColor=none;fillColor=none;" vertex="1" parent="1">
          <mxGeometry x="260" y="618" width="130" height="30" as="geometry" />
        </mxCell>
        <mxCell id="AXNX3rKrvzRq8Kbk7m-a-30" value="" style="html=1;verticalAlign=bottom;labelBackgroundColor=none;endArrow=block;endFill=1;dashed=1;rounded=0;" edge="1" parent="1">
          <mxGeometry width="160" relative="1" as="geometry">
            <mxPoint x="405" y="690" as="sourcePoint" />
            <mxPoint x="235" y="690" as="targetPoint" />
          </mxGeometry>
        </mxCell>
        <mxCell id="AXNX3rKrvzRq8Kbk7m-a-31" value="show_message(\&quot;Δεν υπάρχουν επιβεβαιωμένοι κίνδυνοι\&quot;)" style="text;html=1;align=center;verticalAlign=middle;resizable=0;points=[];autosize=1;strokeColor=none;fillColor=none;" vertex="1" parent="1">
          <mxGeometry x="180" y="668" width="340" height="30" as="geometry" />
        </mxCell>
        <mxCell id="AXNX3rKrvzRq8Kbk7m-a-32" value="else" style="text;html=1;align=center;verticalAlign=middle;resizable=0;points=[];autosize=1;strokeColor=none;fillColor=none;" vertex="1" parent="1">
          <mxGeometry x="205" y="718" width="50" height="30" as="geometry" />
        </mxCell>
        <mxCell id="AXNX3rKrvzRq8Kbk7m-a-33" value="Εγκυρα Reports" style="text;html=1;align=center;verticalAlign=middle;resizable=0;points=[];autosize=1;strokeColor=none;fillColor=none;" vertex="1" parent="1">
          <mxGeometry x="240" y="718" width="110" height="30" as="geometry" />
        </mxCell>
        <mxCell id="AXNX3rKrvzRq8Kbk7m-a-34" value="" style="html=1;verticalAlign=bottom;labelBackgroundColor=none;endArrow=block;endFill=1;dashed=1;rounded=0;entryX=1.175;entryY=-0.167;entryDx=0;entryDy=0;entryPerimeter=0;" edge="1" parent="1">
          <mxGeometry width="160" relative="1" as="geometry">
            <mxPoint x="406.25" y="790" as="sourcePoint" />
            <mxPoint x="243.75" y="790" as="targetPoint" />
          </mxGeometry>
        </mxCell>
        <mxCell id="AXNX3rKrvzRq8Kbk7m-a-35" value="handle_map_generation(report)" style="text;html=1;align=center;verticalAlign=middle;resizable=0;points=[];autosize=1;strokeColor=none;fillColor=none;" vertex="1" parent="1">
          <mxGeometry x="225" y="768" width="190" height="30" as="geometry" />
        </mxCell>
        <mxCell id="AXNX3rKrvzRq8Kbk7m-a-36" value="end" style="text;html=1;align=center;verticalAlign=middle;resizable=0;points=[];autosize=1;strokeColor=none;fillColor=none;" vertex="1" parent="1">
          <mxGeometry x="200" y="798" width="40" height="30" as="geometry" />
        </mxCell>
        <mxCell id="AXNX3rKrvzRq8Kbk7m-a-37" value="" style="html=1;verticalAlign=bottom;labelBackgroundColor=none;endArrow=block;endFill=1;rounded=0;" edge="1" parent="1" target="AXNX3rKrvzRq8Kbk7m-a-3">
          <mxGeometry width="160" relative="1" as="geometry">
            <mxPoint x="80" y="890" as="sourcePoint" />
            <mxPoint x="240" y="890" as="targetPoint" />
          </mxGeometry>
        </mxCell>
        <mxCell id="AXNX3rKrvzRq8Kbk7m-a-38" value="click_on_marker()" style="text;html=1;align=center;verticalAlign=middle;resizable=0;points=[];autosize=1;strokeColor=none;fillColor=none;" vertex="1" parent="1">
          <mxGeometry x="235" y="860" width="120" height="30" as="geometry" />
        </mxCell>
        <mxCell id="AXNX3rKrvzRq8Kbk7m-a-39" value="" style="html=1;verticalAlign=bottom;labelBackgroundColor=none;endArrow=block;endFill=1;dashed=1;rounded=0;" edge="1" parent="1">
          <mxGeometry width="160" relative="1" as="geometry">
            <mxPoint x="410" y="940" as="sourcePoint" />
            <mxPoint x="240" y="940" as="targetPoint" />
          </mxGeometry>
        </mxCell>
        <mxCell id="AXNX3rKrvzRq8Kbk7m-a-40" value="showPopup()" style="text;html=1;align=center;verticalAlign=middle;resizable=0;points=[];autosize=1;strokeColor=none;fillColor=none;" vertex="1" parent="1">
          <mxGeometry x="275" y="908" width="90" height="30" as="geometry" />
        </mxCell>
      </root>
    </mxGraphModel>
  </diagram>
</mxfile>
